<svg width="20" height="19" viewBox="0 0 20 19" fill="none" xmlns="http://www.w3.org/2000/svg">
<path fill-rule="evenodd" clip-rule="evenodd" d="M16.8222 3.05219C15.0069 1.25461 12.5547 0.247381 10 0.25H9.89969C4.55413 0.305001 0.249717 4.65416 0.25 10C0.25 14.0312 2.74187 17.4119 6.7525 18.8284C7.67041 19.1521 8.68826 19.0103 9.48278 18.4481C10.2773 17.8859 10.7497 16.9733 10.75 16C10.75 15.1716 11.4216 14.5 12.25 14.5H16.5822C17.9843 14.5068 19.2017 13.5359 19.5072 12.1675C19.6748 11.4294 19.7563 10.6744 19.75 9.9175C19.7307 7.32976 18.6763 4.85742 16.8222 3.05219V3.05219ZM18.0409 11.8375C17.8875 12.5191 17.2809 13.0025 16.5822 13H12.25C10.5931 13 9.25 14.3431 9.25 16C9.2493 16.4862 9.01302 16.9418 8.61609 17.2225C8.21915 17.5032 7.71079 17.5742 7.25219 17.4128C3.85844 16.2156 1.75 13.375 1.75 10C1.74976 5.47676 5.39169 1.79677 9.91469 1.75H9.99906C14.5208 1.76756 18.1928 5.40829 18.2491 9.92969C18.2546 10.5714 18.1861 11.2116 18.0447 11.8375H18.0409ZM11.125 5.125C11.125 5.74632 10.6213 6.25 10 6.25C9.37868 6.25 8.875 5.74632 8.875 5.125C8.875 4.50368 9.37868 4 10 4C10.6213 4 11.125 4.50368 11.125 5.125V5.125ZM7 7.375C7 7.99632 6.49632 8.5 5.875 8.5C5.25368 8.5 4.75 7.99632 4.75 7.375C4.75 6.75368 5.25368 6.25 5.875 6.25C6.49632 6.25 7 6.75368 7 7.375V7.375ZM7 12.625C7 13.2463 6.49632 13.75 5.875 13.75C5.25368 13.75 4.75 13.2463 4.75 12.625C4.75 12.0037 5.25368 11.5 5.875 11.5C6.49632 11.5 7 12.0037 7 12.625V12.625ZM15.25 7.375C15.25 7.99632 14.7463 8.5 14.125 8.5C13.5037 8.5 13 7.99632 13 7.375C13 6.75368 13.5037 6.25 14.125 6.25C14.7463 6.25 15.25 6.75368 15.25 7.375V7.375Z" fill="#121417"/>
</svg>
